<svg xmlns="http://www.w3.org/2000/svg" width="150" height="150" viewBox="0 0 150 150">
  <rect width="150" height="150" fill="white"/>
  <rect x="10" y="10" width="130" height="130" fill="none" stroke="#333" stroke-width="5"/>
  
  <!-- QR code position markers -->
  <rect x="20" y="20" width="30" height="30" fill="#333"/>
  <rect x="25" y="25" width="20" height="20" fill="white"/>
  <rect x="30" y="30" width="10" height="10" fill="#333"/>
  
  <rect x="100" y="20" width="30" height="30" fill="#333"/>
  <rect x="105" y="25" width="20" height="20" fill="white"/>
  <rect x="110" y="30" width="10" height="10" fill="#333"/>
  
  <rect x="20" y="100" width="30" height="30" fill="#333"/>
  <rect x="25" y="105" width="20" height="20" fill="white"/>
  <rect x="30" y="110" width="10" height="10" fill="#333"/>
  
  <!-- QR code pattern (simplified) -->
  <rect x="70" y="30" width="10" height="10" fill="#333"/>
  <rect x="60" y="40" width="10" height="10" fill="#333"/>
  <rect x="80" y="40" width="10" height="10" fill="#333"/>
  <rect x="70" y="50" width="10" height="10" fill="#333"/>
  <rect x="90" y="50" width="10" height="10" fill="#333"/>
  <rect x="60" y="60" width="10" height="10" fill="#333"/>
  <rect x="80" y="60" width="10" height="10" fill="#333"/>
  <rect x="40" y="70" width="10" height="10" fill="#333"/>
  <rect x="70" y="70" width="10" height="10" fill="#333"/>
  <rect x="100" y="70" width="10" height="10" fill="#333"/>
  <rect x="60" y="80" width="10" height="10" fill="#333"/>
  <rect x="80" y="80" width="10" height="10" fill="#333"/>
  <rect x="40" y="90" width="10" height="10" fill="#333"/>
  <rect x="70" y="90" width="10" height="10" fill="#333"/>
  <rect x="100" y="90" width="10" height="10" fill="#333"/>
  <rect x="60" y="100" width="10" height="10" fill="#333"/>
  <rect x="80" y="100" width="10" height="10" fill="#333"/>
  <rect x="70" y="110" width="10" height="10" fill="#333"/>
  <rect x="90" y="110" width="10" height="10" fill="#333"/>
</svg>

